<?xml version="1.0" encoding="UTF-8"?>
<svg width="26px" height="30px" viewBox="0 0 26 30" version="1.1" xmlns="http://www.w3.org/2000/svg" xmlns:xlink="http://www.w3.org/1999/xlink">
    <!-- Generator: Sketch 49.1 (51147) - http://www.bohemiancoding.com/sketch -->
    <title>Combined Shape</title>
    <desc>Created with Sketch.</desc>
    <defs></defs>
    <g id="Page-1" stroke="none" stroke-width="1" fill="none" fill-rule="evenodd">
        <path d="M18.9627895,6.69890696 C22.4391049,6.69890696 24.6620649,10.0624244 24.6620649,10.0624244 C24.6620649,10.0624244 21.2710218,11.9025883 21.2710218,15.8989859 C21.2710218,20.6422562 25.53096,22.0220089 25.53096,22.0220089 C25.53096,22.0220089 22.168586,30 18.3930825,30 C16.2700969,30 16.1282215,28.7786523 13.3068854,28.7786523 C10.8567777,28.7786523 10.0305188,30 8.16408515,30 C4.60176238,30 0,22.2233462 0,15.8989859 C0,9.32961583 4.65910064,6.69890696 7.57967603,6.69890696 C10.1444602,6.69890696 11.2125689,8.2081966 13.2782163,8.2081966 C15.0167415,8.2081966 16.3847734,6.69890696 18.9627895,6.69890696 Z M18.3651485,0 C18.8775172,3.2199166 15.9569419,7.20225024 12.4666595,7.07271337 C11.9535556,2.97564707 15.715092,0.216141528 18.3651485,0 Z" id="Combined-Shape" fill="#000000"></path>
    </g>
</svg>