<?xml version="1.0" encoding="utf-8"?>
<!-- Generator: Adobe Illustrator 17.0.0, SVG Export Plug-In . SVG Version: 6.00 Build 0)  -->
<!DOCTYPE svg PUBLIC "-//W3C//DTD SVG 1.1//EN" "http://www.w3.org/Graphics/SVG/1.1/DTD/svg11.dtd">
<svg version="1.1" id="icones_x5F_renault" xmlns="http://www.w3.org/2000/svg" xmlns:xlink="http://www.w3.org/1999/xlink" x="0px"
	 y="0px" width="30px" height="30px" viewBox="0 0 30 30" enable-background="new 0 0 30 30" xml:space="preserve">
<path id="city" d="M0.132,16.297c0-2.27,0.138-2.594,2.408-5.28C4.856,8.238,5.968,7.59,8.423,7.59h5.882
	c2.64,0,4.076,0.463,6.16,1.899l3.52,2.64l2.27,0.556c2.455,0.556,3.612,1.992,3.612,4.353c0,1.158-0.324,2.177-0.926,3.011
	l-1.297-0.926c0.463-0.695,0.603-1.204,0.603-2.085c0-1.622-0.834-2.501-2.918-3.011l-2.27-0.557l-3.427-2.594
	c-1.667-1.251-3.104-1.714-5.327-1.714H8.423c-1.899,0-2.594,0.463-4.724,3.011c-1.76,2.13-1.945,2.408-1.945,4.353v0.973
	c0,0.695,0.138,1.111,0.556,1.529l-1.111,1.019c-0.741-0.648-1.066-1.436-1.066-2.548C0.132,17.501,0.132,16.297,0.132,16.297z
	 M20.001,19.168c0-1.853,1.389-3.242,3.289-3.242s3.289,1.389,3.289,3.242S25.19,22.41,23.29,22.41
	c-1.297,0-2.363-0.648-2.918-1.667H9.673c-0.556,1.019-1.622,1.667-2.918,1.667c-1.899,0-3.289-1.389-3.289-3.242
	s1.389-3.242,3.289-3.242s3.289,1.389,3.289,3.242H20.001z M6.755,17.455c-1.066,0-1.76,0.695-1.76,1.714s0.695,1.714,1.76,1.714
	c1.066,0,1.76-0.695,1.76-1.714C8.516,18.149,7.82,17.455,6.755,17.455 M23.29,17.455c-1.066,0-1.76,0.695-1.76,1.714
	s0.695,1.714,1.76,1.714c1.066,0,1.76-0.695,1.76-1.714C25.05,18.149,24.356,17.455,23.29,17.455"/>
</svg>
